<?xml version="1.0" encoding="UTF-8"?>
<svg version="1.1" xmlns="http://www.w3.org/2000/svg" width="472" height="472">
<path d="M0 0 C155.76 0 311.52 0 472 0 C472 155.76 472 311.52 472 472 C316.24 472 160.48 472 0 472 C0 316.24 0 160.48 0 0 Z " fill="#171A23" transform="translate(0,0)"/>
<path d="M0 0 C1.93681335 0.91811658 3.87430093 1.83481238 5.8125 2.75 C21.84384963 10.78704995 36.58126872 21.78976242 49.7265625 33.9140625 C51.8389424 35.8522255 53.99998072 37.71023271 56.1875 39.5625 C60.19545209 43.06645812 63.58859703 46.92312828 67 51 C67.76183594 51.87398438 68.52367187 52.74796875 69.30859375 53.6484375 C82.30964272 68.77914348 92.22331506 85.86154851 100.8125 103.8125 C101.3540271 104.94026855 101.3540271 104.94026855 101.90649414 106.09082031 C113.20842306 130.20230241 119.19620874 158.0742182 119.5625 184.625 C119.60286377 186.35991699 119.60286377 186.35991699 119.64404297 188.12988281 C119.60267158 197.10614031 119.60267158 197.10614031 116.58984375 200.2109375 C113.01122518 202.68304505 110.53585814 203.54034324 106.09204102 203.46191406 C102.73128152 202.71987217 101.32393805 200.79283361 99.23095703 198.17578125 C96.98550341 194.20682396 97.24470365 190.20927564 97.3125 185.75 C97.28178454 183.78240407 97.24257081 181.81492436 97.1953125 179.84765625 C97.16099121 178.37449951 97.16099121 178.37449951 97.12597656 176.87158203 C95.24725383 134.04689839 74.73091218 90.37469177 45 60 C41.7413364 61.4264578 39.5975146 63.16704162 37.109375 65.6953125 C36.40039062 66.41074219 35.69140625 67.12617187 34.9609375 67.86328125 C34.23132813 68.60964844 33.50171875 69.35601562 32.75 70.125 C32.00492187 70.87910156 31.25984375 71.63320312 30.4921875 72.41015625 C28.6568658 74.26900772 26.8263809 76.13237005 25 78 C26.76449732 81.75732964 29.01451944 84.35275715 31.8125 87.4375 C44.39383184 101.85907372 55.40607885 120.25374497 60.390625 138.82421875 C60.96653533 140.88051398 61.68633478 142.77810725 62.5 144.75 C67.62695747 158.14451193 69.1229775 173.36017708 69.3125 187.625 C69.33014404 188.38329102 69.34778809 189.14158203 69.3659668 189.92285156 C69.36035762 194.47342638 68.79291341 197.37471584 66 201 C63.07001691 203.27887574 59.69735698 203.61883793 56.01953125 203.48706055 C52.75343484 202.69935959 51.32033804 200.90204952 49.26220703 198.33862305 C46.71781043 193.62435321 47.01062074 188.37239537 46.875 183.125 C46.32173654 172.29405417 45.26356416 162.34650673 42 152 C41.76684082 151.25379395 41.53368164 150.50758789 41.29345703 149.73876953 C35.45242355 131.56123262 24.8172719 105.68343602 8 95 C7.26136719 95.59167969 6.52273438 96.18335938 5.76171875 96.79296875 C-0.84606428 101.93981881 -7.13691387 105.91977532 -15 109 C-13.51330148 112.44042276 -11.53310132 114.69242086 -8.9375 117.375 C7.76415451 135.65835213 18.35839404 160.39674696 19.375 185.125 C20.04414781 196.10398067 23.76509874 204.96204531 31.48046875 212.84375 C38.37920174 218.74778195 46.28106141 221.85260563 55 224 C55.95132812 224.25523437 56.90265625 224.51046875 57.8828125 224.7734375 C68.85687617 227.55133332 80.08327967 228.83856327 91.38671875 229.203125 C92.28124756 229.23390137 93.17577637 229.26467773 94.09741211 229.29638672 C95.82304176 229.34752825 97.54930169 229.38133569 99.27563477 229.39501953 C104.63901724 229.54256036 107.72648861 230.45871019 112 234 C114.35242347 237.20785018 114.4684209 240.09649252 114 244 C111.86369843 247.96741719 110.23748087 250.42359927 106 252 C75.06397757 255.40217126 39.51199764 246.84965168 15 228 C14.83564453 228.99966797 14.83564453 228.99966797 14.66796875 230.01953125 C13.65283394 235.92051814 12.36096065 241.64573039 10.73046875 247.40625 C9.74108965 250.91933942 8.86939516 254.45554283 8 258 C8.83273437 258.26296875 9.66546875 258.5259375 10.5234375 258.796875 C13.59993863 259.8615518 16.56697319 261.06801469 19.5534668 262.36010742 C40.50731142 271.36149383 62.3605164 276.12268554 85.00390625 278.41015625 C88.2849951 279.05610725 90.31188876 280.02997823 93 282 C95.47361688 285.71042531 95.54607278 288.69862675 95 293 C93.3232832 296.85644863 91.8543718 298.44617267 88 300 C58.9961968 303.03840343 19.04170144 291.02780096 -5 275 C-9.38453579 271.08676611 -13.27936443 266.66057358 -14.44140625 260.7578125 C-14.77583886 253.48660019 -13.06594369 247.53959888 -10.75 240.75 C-0.84647528 211.42110326 1.45420753 180.15771213 -12.08984375 151.71875 C-23.3169543 129.29905615 -41.99142912 114.80251836 -65.3125 106.625 C-67.19992786 106.05473436 -69.09568397 105.51104526 -71 105 C-71.83015625 104.77570313 -72.6603125 104.55140625 -73.515625 104.3203125 C-88.17027744 101.03874922 -102.83737959 102.5210906 -117 107 C-118.00675781 107.31195313 -119.01351562 107.62390625 -120.05078125 107.9453125 C-131.12608706 111.67363327 -140.11513521 117.51002866 -149 125 C-149.84175781 125.64839844 -150.68351563 126.29679688 -151.55078125 126.96484375 C-163.4787621 136.87629195 -170.30947847 151.60118974 -175 166 C-175.33306152 166.74668945 -175.66612305 167.49337891 -176.00927734 168.26269531 C-177.18248029 171.50418162 -177.5211713 174.46001132 -177.859375 177.890625 C-178.00233646 179.24565594 -178.14659052 180.600551 -178.29199219 181.95532227 C-178.36591187 182.65730743 -178.43983154 183.3592926 -178.51599121 184.08255005 C-179.87581471 196.67758715 -181.57962735 208.43320017 -187 220 C-187.29922363 220.64130859 -187.59844727 221.28261719 -187.90673828 221.94335938 C-194.21281645 235.20346769 -202.96454911 246.327972 -213 257 C-213.5259375 257.59039062 -214.051875 258.18078125 -214.59375 258.7890625 C-226.51429027 271.62188901 -243.30576221 281.26040276 -259.5 287.5625 C-260.13413818 287.81427002 -260.76827637 288.06604004 -261.42163086 288.32543945 C-266.17438607 290.05944322 -270.01811753 290.40337008 -275 290 C-277.69105198 287.82425584 -279.45532928 286.08934144 -281 283 C-281.68362157 276.04984741 -281.68362157 276.04984741 -279.25 272.3125 C-275.49709845 269.64216621 -271.78098871 268.11924647 -267.51171875 266.43359375 C-255.95570534 261.71606659 -245.63514547 256.01325222 -236 248 C-235.12730469 247.27941406 -234.25460938 246.55882812 -233.35546875 245.81640625 C-224.12509519 237.8621212 -216.82699143 228.68281762 -211 218 C-210.55914062 217.22269531 -210.11828125 216.44539062 -209.6640625 215.64453125 C-203.74831506 204.65558223 -201.78346174 193.56389939 -200.70703125 181.31494141 C-199.92621783 172.61184948 -198.39003784 164.54590223 -195.25 156.359375 C-190.22422557 143.20191029 -186.92867889 131.35872657 -191.9375 117.5625 C-197.76815963 106.06328783 -208.78316425 97.03048356 -217.8137207 88.00097656 C-219.9626812 85.84979275 -222.10346973 83.69067947 -224.24414062 81.53125 C-225.60888714 80.16357551 -226.97410386 78.79637002 -228.33984375 77.4296875 C-229.2991404 76.45961258 -229.2991404 76.45961258 -230.27781677 75.46994019 C-233.1092328 72.16189072 -233.1092328 72.16189072 -237 71 C-238.63613635 73.02844414 -240.14067283 75.05130628 -241.625 77.1875 C-242.07085449 77.82244385 -242.51670898 78.4573877 -242.97607422 79.11157227 C-262.4344394 107.09035333 -273.65654834 136.17306851 -278 170 C-278.17418457 171.20857666 -278.34836914 172.41715332 -278.52783203 173.66235352 C-279.10239677 178.29317334 -279.12651208 182.87040072 -279.09765625 187.53125 C-279.09553383 188.84603333 -279.09553383 188.84603333 -279.09336853 190.18737793 C-279.08781768 192.95828821 -279.07527461 195.72911457 -279.0625 198.5 C-279.05747864 200.39062382 -279.05291685 202.28124893 -279.04882812 204.171875 C-279.0378644 208.78128183 -279.02063425 213.39062673 -279 218 C-277.26516966 217.08520581 -275.53414315 216.1631963 -273.8046875 215.23828125 C-272.84030762 214.72563721 -271.87592773 214.21299316 -270.88232422 213.68481445 C-263.00502698 209.080272 -257.71203377 203.30362575 -254 195 C-253.66387695 194.24823486 -253.32775391 193.49646973 -252.98144531 192.72192383 C-251.93629148 189.82331186 -251.58402686 187.33942421 -251.32421875 184.2734375 C-251.22125488 183.16838867 -251.11829102 182.06333984 -251.01220703 180.92480469 C-250.85147705 179.16765137 -250.85147705 179.16765137 -250.6875 177.375 C-249.51403589 165.81923127 -247.44538879 155.07278473 -244 144 C-243.61537849 142.68895069 -243.23124865 141.37775703 -242.84765625 140.06640625 C-240.72332605 133.19273178 -238.09114419 126.70385081 -234.9375 120.25 C-234.44479614 119.22966675 -234.44479614 119.22966675 -233.94213867 118.1887207 C-232.12281946 114.60871135 -230.58314002 111.93531633 -227 110 C-220.45454545 109.15542522 -220.45454545 109.15542522 -217.18359375 111.0546875 C-215.00810789 112.826529 -213.26296446 114.47407109 -212 117 C-211.43224801 123.07116131 -212.94599938 126.67836042 -215.6875 131.875 C-219.60811385 139.71882873 -222.31615137 147.58494332 -224.4987793 156.06616211 C-224.99267863 157.97175227 -225.53315513 159.86507359 -226.07421875 161.7578125 C-227.62537453 168.00890933 -227.73717605 174.48712238 -228.12304688 180.89257812 C-229.50497053 200.42625577 -237.8148672 214.77056389 -251.9921875 227.8359375 C-261.79514173 235.78769008 -275.52432207 241.78918887 -287.9375 243.5625 C-292.29033015 242.76300058 -293.46802326 241.65729973 -296 238 C-301.34507675 223.53821226 -301.38419398 207.05346098 -301.3125 191.8125 C-301.31067719 191.00295868 -301.30885437 190.19341736 -301.30697632 189.35934448 C-301.25902783 176.67361056 -300.55026507 164.45501849 -298 152 C-297.83902832 151.14051758 -297.67805664 150.28103516 -297.51220703 149.39550781 C-292.20466929 121.20080683 -280.68392375 94.56913279 -264.38134766 70.99853516 C-263.48785375 69.70582729 -262.60399932 68.40638019 -261.73193359 67.09912109 C-237.99892371 31.66165374 -201.14500235 6.55991551 -162 -9 C-160.97132813 -9.41894531 -159.94265625 -9.83789062 -158.8828125 -10.26953125 C-149.87298915 -13.60846579 -140.5919366 -15.42908635 -131.1875 -17.25 C-130.51405548 -17.38092041 -129.84061096 -17.51184082 -129.14675903 -17.64672852 C-86.28699229 -25.90451558 -38.81278557 -20.56181593 0 0 Z " fill="#A451F1" transform="translate(329,44)"/>
<path d="M0 0 C0.84240234 -0.00773438 1.68480469 -0.01546875 2.55273438 -0.0234375 C16.15486784 0.01844744 28.65319695 4.44044247 39.0625 13.25 C40.02736328 13.96542969 40.02736328 13.96542969 41.01171875 14.6953125 C51.86783079 23.18398164 58.66552246 36.87459363 61.0625 50.25 C62.42677452 68.08530189 60.39459461 85.99672639 54.99047852 103.03710938 C50.45879703 117.41055213 48.97660433 134.74435481 55.58203125 148.6953125 C57.80836868 152.53706627 60.03937825 155.98648544 63.0625 159.25 C63.56652344 159.806875 64.07054687 160.36375 64.58984375 160.9375 C83.40849477 179.37209692 113.63706211 185.79838629 138.25805664 191.58227539 C149.38173077 194.23076923 149.38173077 194.23076923 153.0625 199.25 C153.61859468 203.14266279 153.43910061 205.42147866 151.8125 209 C149.94313823 211.40346513 148.77859698 212.8552475 146.0625 214.25 C139.08355203 214.7243755 132.77380662 213.34765765 126 211.75 C124.28623169 211.34624146 124.28623169 211.34624146 122.5378418 210.93432617 C106.6195044 207.05575209 91.56764002 201.67088441 76.75 194.6875 C75.82550049 194.25284424 74.90100098 193.81818848 73.94848633 193.37036133 C58.11956846 185.64216726 44.04306101 174.21112203 36.0625 158.25 C36.0625 157.26 36.0625 156.27 36.0625 155.25 C35.4025 155.25 34.7425 155.25 34.0625 155.25 C33.81886719 156.07113281 33.57523438 156.89226562 33.32421875 157.73828125 C31.84358604 161.85929923 29.94114345 165.58528744 27.875 169.4375 C27.48078857 170.18346436 27.08657715 170.92942871 26.68041992 171.69799805 C23.80233304 177.0731718 20.64887843 182.10071229 17.08203125 187.05078125 C15.80626296 189.18400443 15.80626296 189.18400443 16.625 191.31640625 C29.97012023 209.26704352 59.65631941 221.74770269 80.15234375 229.09765625 C81.01045654 229.40558105 81.86856934 229.71350586 82.75268555 230.03076172 C84.42041918 230.62150685 86.09234932 231.20057609 87.76879883 231.76611328 C92.01785426 233.2529907 95.34316054 234.45723707 98.0625 238.25 C98.80730211 241.31135574 98.62452097 244.15888467 98.0625 247.25 C96.26856332 250.12029869 95.07986724 251.74131638 92.0625 253.25 C86.01690998 253.81755798 80.75231582 252.99076772 75.0625 251 C74.30904297 250.74114014 73.55558594 250.48228027 72.77929688 250.21557617 C49.53443451 241.85758486 5.45163339 223.33572738 -6.296875 199.3046875 C-8.1998245 193.20132509 -8.04148136 187.75507644 -5.45703125 181.890625 C-3.39810665 178.25771214 -1.2134603 174.7488214 1.0625 171.25 C13.97171688 150.82432597 23.43564887 129.14775035 31.0625 106.25 C31.29936523 105.55422852 31.53623047 104.85845703 31.78027344 104.14160156 C37.69771498 86.70711739 44.42142939 60.8666684 36.0625 43.25 C31.10517048 34.04151325 22.64910641 25.88267022 12.484375 22.6484375 C0.29007664 20.64227874 -10.82120079 22.0364444 -21.1640625 28.9453125 C-29.58575448 35.1410066 -35.0143526 44.04554438 -36.9375 54.25 C-37.30280669 57.14075035 -37.5898713 60.03788096 -37.875 62.9375 C-38.71266865 71.33404877 -40.32497628 79.20694943 -42.9375 87.25 C-43.20304687 88.06984375 -43.46859375 88.8896875 -43.7421875 89.734375 C-57.09056262 130.13388201 -83.34956704 165.34668827 -117.9375 190.25 C-118.80246094 190.88679687 -119.66742188 191.52359375 -120.55859375 192.1796875 C-140.6828125 206.669125 -140.6828125 206.669125 -148.8984375 206.609375 C-152.31756698 206.0067698 -153.86939052 203.88213933 -155.9375 201.25 C-157.51172753 198.10154494 -157.60678343 194.65781928 -156.9375 191.25 C-154.34418401 187.30286476 -151.69408681 185.2641264 -147.5625 183.0625 C-106.39561427 159.90300049 -75.31762107 120.61435908 -62.48339844 75.23974609 C-61.02601619 69.9277312 -60.07928373 64.73769248 -59.5234375 59.26171875 C-58.65104927 50.73864673 -57.58574249 43.12050915 -53.9375 35.25 C-53.58945313 34.48558594 -53.24140625 33.72117188 -52.8828125 32.93359375 C-49.62100609 26.46621897 -44.98376819 21.39035116 -39.9375 16.25 C-39.32132812 15.60933594 -38.70515625 14.96867188 -38.0703125 14.30859375 C-27.67104843 4.33333401 -14.15794677 -0.12939479 0 0 Z " fill="#A551F1" transform="translate(236.9375,175.75)"/>
<path d="M0 0 C0.85998596 -0.00997513 1.71997192 -0.01995026 2.60601807 -0.03022766 C38.03025733 -0.35617723 70.59646093 4.62577095 101.9375 22.23828125 C102.89527344 22.72554687 103.85304688 23.2128125 104.83984375 23.71484375 C114.59456799 28.72516122 123.44443201 35.33567543 131.9375 42.23828125 C131.410352 46.21348661 129.66608143 47.66972119 126.65625 50.1953125 C122.53655678 53.77367334 118.64645703 57.46900717 114.84375 61.375 C114.32119629 61.90803741 113.79864258 62.44107483 113.26025391 62.99026489 C111.10789785 65.18658596 108.95859161 67.38553302 106.82373047 69.59887695 C100.3641333 76.28294267 94.3150545 81.96508669 85.9375 86.23828125 C84.844375 86.83640625 83.75125 87.43453125 82.625 88.05078125 C72.51447114 92.51822424 60.43360098 90.89661484 50.33984375 87.390625 C46.45264925 86.07406659 42.54336494 85.03875328 38.5625 84.05078125 C37.90838135 83.88416992 37.2542627 83.71755859 36.58032227 83.54589844 C9.60885731 76.85199938 -19.66635375 81.91554112 -43.34716797 96.15429688 C-50.61249612 100.74553755 -57.25350706 106.17548402 -63.5390625 112.0234375 C-65.0625 113.23828125 -65.0625 113.23828125 -67.0625 113.23828125 C-67.49820313 112.32046875 -67.93390625 111.40265625 -68.3828125 110.45703125 C-73.35050395 98.74079268 -73.35050395 98.74079268 -82.0625 90.23828125 C-80.73030494 86.24169608 -78.10399917 84.59035114 -74.875 82.11328125 C-74.2456958 81.62754639 -73.6163916 81.14181152 -72.96801758 80.64135742 C-57.19886049 68.63134427 -40.39746568 59.56408734 -21.07861328 54.7421875 C-19.22131889 54.27797636 -17.37370117 53.77549439 -15.52734375 53.26953125 C2.91213785 48.93555081 25.67866613 49.24134865 43.9375 54.23828125 C44.56946289 54.40408691 45.20142578 54.56989258 45.85253906 54.74072266 C50.8520244 56.05448319 55.82835747 57.36999192 60.61328125 59.33984375 C63.87491284 60.60064251 66.47068944 60.54781791 69.9375 60.23828125 C72.79496217 58.96829806 74.41887263 57.95448095 76.25 55.42578125 C77.17834633 52.47195201 77.31515935 50.32249925 76.9375 47.23828125 C73.94281907 41.52116311 68.7162148 40.17493161 62.9375 38.23828125 C61.44476563 37.7278125 61.44476563 37.7278125 59.921875 37.20703125 C20.5516878 24.40687186 -22.29666021 28.70125305 -59.0625 47.23828125 C-72.67510903 54.20040305 -84.36161565 63.49522203 -96.0625 73.23828125 C-99.30345065 71.81907372 -101.42085505 70.10519877 -103.8828125 67.578125 C-104.58277344 66.86720703 -105.28273438 66.15628906 -106.00390625 65.42382812 C-106.72449219 64.68197266 -107.44507812 63.94011719 -108.1875 63.17578125 C-109.62537561 61.70354932 -111.06537708 60.23338969 -112.5078125 58.765625 C-113.14219238 58.11327881 -113.77657227 57.46093262 -114.43017578 56.78881836 C-115.99709167 55.14942125 -115.99709167 55.14942125 -118.0625 54.23828125 C-116.38156699 49.19548221 -111.7466941 46.70083501 -107.65380859 43.49414062 C-106.13638184 42.29658873 -104.63983285 41.07272262 -103.14453125 39.84765625 C-74.77727035 17.09513134 -36.77427865 0.34516201 0 0 Z " fill="#181923" transform="translate(225.0625,44.76171875)"/>
<path d="M0 0 C2.8100346 1.79363911 4.50940468 3.01880935 6 6 C8.74292506 43.36673325 -10.60574482 82.19230259 -30.40625 112.765625 C-38.83487995 125.78597127 -42.6210276 139.58422171 -39.60449219 155.02441406 C-37.51462274 163.26243653 -33.74128305 169.82519149 -28 176 C-27.38898438 176.68964844 -26.77796875 177.37929688 -26.1484375 178.08984375 C-16.73727406 188.13689661 -4.96896202 196.60944477 6.8984375 203.53515625 C9.90506754 205.63085563 11.6893373 207.55282961 12.46875 211.18359375 C12.53003318 215.60364285 12.46733926 217.40967672 9.625 221 C5.50789123 224.13684477 3.21396404 224.47254868 -2 224 C-4.68572337 222.78462065 -6.99198608 221.16189508 -9.375 219.4375 C-10.03129395 218.98004395 -10.68758789 218.52258789 -11.36376953 218.05126953 C-13.2577273 216.72059489 -15.13211661 215.36696052 -17 214 C-17.8765625 213.35933594 -18.753125 212.71867188 -19.65625 212.05859375 C-25.01752925 207.99043995 -30.02517944 203.52790997 -35 199 C-39.02725887 200.63215048 -41.84947358 203.48055085 -44.9375 206.4375 C-54.32765537 215.42606382 -54.32765537 215.42606382 -60 215.4375 C-64.05585501 215.29182657 -66.14904395 213.93734866 -69 211 C-70.65460173 207.69079653 -70.75121231 204.54947816 -70 201 C-66.67275653 195.65409358 -61.57279939 191.56429709 -56.796875 187.54296875 C-55.11316264 186.09717227 -53.54694933 184.58992015 -52 183 C-53.12614189 179.99695497 -54.4232978 177.19454892 -55.9375 174.375 C-59.25998753 167.80468758 -61.60136506 160.41683573 -61 153 C-61.66 153 -62.32 153 -63 153 C-63.26176025 153.58628174 -63.52352051 154.17256348 -63.79321289 154.77661133 C-65.06747191 157.12431048 -66.42738878 158.68581889 -68.30859375 160.57421875 C-69.29714355 161.56893188 -69.29714355 161.56893188 -70.30566406 162.58374023 C-71.36092285 163.62510132 -71.36092285 163.62510132 -72.4375 164.6875 C-73.5217627 165.76269897 -73.5217627 165.76269897 -74.62792969 166.85961914 C-80.1591378 172.28937668 -85.82617295 177.30428628 -92 182 C-92.52674316 182.4036377 -93.05348633 182.80727539 -93.59619141 183.22314453 C-105.5933569 192.40568468 -105.5933569 192.40568468 -111.9609375 192.359375 C-115.38006698 191.7567698 -116.93189052 189.63213933 -119 187 C-120.65031549 183.69936903 -120.74969601 180.54166734 -120 177 C-116.95343796 172.2840889 -111.95807708 169.20274024 -107.5 165.9375 C-99.75018708 160.24911787 -92.90894073 153.66588213 -86 147 C-85.12988281 146.17113281 -84.25976562 145.34226562 -83.36328125 144.48828125 C-78.26317548 139.53058681 -73.69346583 134.24858763 -69.30126953 128.65625 C-68.38201803 127.48623083 -67.45805201 126.31990841 -66.53076172 125.15625 C-49.76618565 104.07899066 -34.77113477 80.60319096 -26 55 C-25.51391533 53.71921628 -25.02544618 52.43933608 -24.53515625 51.16015625 C-19.67868893 38.2587857 -15.47619107 24.2037788 -14.5625 10.4375 C-14.22999355 6.22575168 -13.1574122 3.96605389 -10 1 C-6.79826746 -0.60086627 -3.47422941 -0.49917089 0 0 Z " fill="#A652F1" transform="translate(242,226)"/>
<path d="M0 0 C0.66 0.33 1.32 0.66 2 1 C1.58226318 1.43755615 1.16452637 1.8751123 0.73413086 2.32592773 C-10.19686612 13.68084044 -10.19686612 13.68084044 -20 26 C-20 20.79175577 -16.02852494 17.05924141 -13 13 C-12.57203125 12.42507812 -12.1440625 11.85015625 -11.703125 11.2578125 C-8.30907519 6.95713295 -4.17860124 3.5046333 0 0 Z " fill="#231839" transform="translate(183,165)"/>
<path d="M0 0 C-1.12949048 3.38847145 -2.12283218 4.19694184 -4.8125 6.4375 C-7.11265868 8.37967334 -9.27115592 10.2782916 -11.375 12.4375 C-13 14 -13 14 -15 14 C-15.66 15.32 -16.32 16.64 -17 18 C-17.66 17.67 -18.32 17.34 -19 17 C-4.22334004 0 -4.22334004 0 0 0 Z " fill="#9C52DD" transform="translate(207,185)"/>
<path d="M0 0 C0 3.63787651 -0.67888836 4.13064655 -3.0625 6.75 C-3.69414063 7.44609375 -4.32578125 8.1421875 -4.9765625 8.859375 C-7.9198308 11.97310285 -10.92869131 15.01270887 -14 18 C-14.99 17.67 -15.98 17.34 -17 17 C-11.39 11.39 -5.78 5.78 0 0 Z " fill="#9F54E1" transform="translate(98,77)"/>
<path d="M0 0 C1.60801039 5.22655697 -0.78483637 8.26387933 -3.23046875 12.9375 C-5.51507803 16.89143747 -8.08743964 20.4884024 -11 24 C-11 20.5502512 -10.20338716 19.13135092 -8.59375 16.11328125 C-7.84931641 14.7065918 -7.84931641 14.7065918 -7.08984375 13.27148438 C-6.56519531 12.29501953 -6.04054687 11.31855469 -5.5 10.3125 C-4.97535156 9.32443359 -4.45070312 8.33636719 -3.91015625 7.31835938 C-2.61224317 4.87592294 -1.30867612 2.43668153 0 0 Z " fill="#9251CE" transform="translate(253,320)"/>
<path d="M0 0 C0.33 1.32 0.66 2.64 1 4 C-0.28716647 5.00578589 -1.57988658 6.00446798 -2.875 7 C-3.59429687 7.556875 -4.31359375 8.11375 -5.0546875 8.6875 C-7 10 -7 10 -9 10 C-9.226875 10.639375 -9.45375 11.27875 -9.6875 11.9375 C-11 14 -11 14 -13.625 14.75 C-14.40875 14.8325 -15.1925 14.915 -16 15 C-11.88953193 10.75251633 -7.51621775 6.82809989 -3.109375 2.890625 C-1.52811291 1.4733801 -1.52811291 1.4733801 0 0 Z " fill="#9D55DB" transform="translate(104,282)"/>
<path d="M0 0 C0 3 0 3 -1.93359375 5.015625 C-2.75988281 5.75296875 -3.58617187 6.4903125 -4.4375 7.25 C-8.45526359 11.0008683 -8.45526359 11.0008683 -10.0625 16.0625 C-10.041875 17.031875 -10.02125 18.00125 -10 19 C-10.33 19 -10.66 19 -11 19 C-11.83712886 12.30296916 -11.83712886 12.30296916 -9.58203125 8.79296875 C-6.65151855 5.4250661 -3.62683371 2.60778973 0 0 Z " fill="#9850D5" transform="translate(183,416)"/>
<path d="M0 0 C1 3 1 3 0 6 C-0.66 6 -1.32 6 -2 6 C-2.226875 6.556875 -2.45375 7.11375 -2.6875 7.6875 C-4.35896766 10.63246684 -6.55276352 12.68156544 -9 15 C-9.66 14.67 -10.32 14.34 -11 14 C-7.37 9.38 -3.74 4.76 0 0 Z " fill="#9850D6" transform="translate(181,344)"/>
<path d="M0 0 C0.66 0.33 1.32 0.66 2 1 C1.04882866 2.1725131 0.08882991 3.33787015 -0.875 4.5 C-1.40867187 5.1496875 -1.94234375 5.799375 -2.4921875 6.46875 C-2.98976563 6.9740625 -3.48734375 7.479375 -4 8 C-4.66 8 -5.32 8 -6 8 C-5.67 10.97 -5.34 13.94 -5 17 C-7 15 -7 15 -7.5625 11.3125 C-7.51230228 7.38990673 -6.25179052 5.72955382 -3.5 3 C-2.35153776 1.97914468 -1.19033723 0.97170386 0 0 Z " fill="#9852D6" transform="translate(129,396)"/>
<path d="M0 0 C0.66 0.66 1.32 1.32 2 2 C-0.64 4.97 -3.28 7.94 -6 11 C-6.66 10.67 -7.32 10.34 -8 10 C-5.36 6.7 -2.72 3.4 0 0 Z " fill="#231736" transform="translate(127,287)"/>
<path d="M0 0 C0.33 1.32 0.66 2.64 1 4 C-0.43359375 5.921875 -0.43359375 5.921875 -2.4375 7.75 C-3.09621094 8.36359375 -3.75492187 8.9771875 -4.43359375 9.609375 C-5.20896484 10.29773438 -5.20896484 10.29773438 -6 11 C-6.66 10.67 -7.32 10.34 -8 10 C-5.36 6.7 -2.72 3.4 0 0 Z " fill="#2B1A43" transform="translate(91,255)"/>
<path d="M0 0 C0.66 0.33 1.32 0.66 2 1 C0.57277341 2.1998278 -0.86715776 3.3845576 -2.3125 4.5625 C-3.51326172 5.55443359 -3.51326172 5.55443359 -4.73828125 6.56640625 C-5.85783203 7.27603516 -5.85783203 7.27603516 -7 8 C-7.99 7.67 -8.98 7.34 -10 7 C-6.7 4.69 -3.4 2.38 0 0 Z " fill="#2A1A3F" transform="translate(167,115)"/>
<path d="M0 0 C-0.28875 0.556875 -0.5775 1.11375 -0.875 1.6875 C-2.0413253 4.08494645 -3.0339881 6.51596939 -4 9 C-4.66 9 -5.32 9 -6 9 C-5.38983051 3.50847458 -5.38983051 3.50847458 -3.5625 1.125 C-2 0 -2 0 0 0 Z " fill="#954ED9" transform="translate(234,227)"/>
<path d="M0 0 C0.33 0.99 0.66 1.98 1 3 C-1.31 4.98 -3.62 6.96 -6 9 C-6.66 8.67 -7.32 8.34 -8 8 C-5.36 5.36 -2.72 2.72 0 0 Z " fill="#954FD1" transform="translate(336,109)"/>
<path d="M0 0 C0.66 0.33 1.32 0.66 2 1 C-0.97 3.64 -3.94 6.28 -7 9 C-7.66 8.67 -8.32 8.34 -9 8 C-6.03 5.36 -3.06 2.72 0 0 Z " fill="#9A56D5" transform="translate(142,106)"/>
<path d="M0 0 C0.33 0 0.66 0 1 0 C1 2.64 1 5.28 1 8 C0.34 8 -0.32 8 -1 8 C-1.33 8.99 -1.66 9.98 -2 11 C-3 9 -3 9 -2.44140625 6.8359375 C-2.15136719 6.02382813 -1.86132812 5.21171875 -1.5625 4.375 C-1.27503906 3.55773437 -0.98757813 2.74046875 -0.69140625 1.8984375 C-0.46324219 1.27195312 -0.23507812 0.64546875 0 0 Z " fill="#8B4AC6" transform="translate(321,277)"/>
<path d="M0 0 C0.33 0 0.66 0 1 0 C1.390625 5.859375 1.390625 5.859375 1 8 C-0.32 9.32 -1.64 10.64 -3 12 C-2.01 8.04 -1.02 4.08 0 0 Z " fill="#924FD3" transform="translate(136,193)"/>
<path d="M0 0 C-1.2065625 0.37125 -1.2065625 0.37125 -2.4375 0.75 C-5.171081 1.72238859 -5.171081 1.72238859 -5.8125 4.125 C-5.9053125 5.053125 -5.9053125 5.053125 -6 6 C-6.66 5.34 -7.32 4.68 -8 4 C-8 2.68 -8 1.36 -8 0 C-4.94736336 -0.98120464 -3.05263664 -0.98120464 0 0 Z " fill="#964ED7" transform="translate(319,151)"/>
<path d="M0 0 C2.64 0 5.28 0 8 0 C8.33 1.32 8.66 2.64 9 4 C6.03 3.01 3.06 2.02 0 1 C0 0.67 0 0.34 0 0 Z " fill="#231A3B" transform="translate(295,30)"/>
<path d="M0 0 C0.99 0.33 1.98 0.66 3 1 C2.19185349 2.33597652 1.37836819 3.668725 0.5625 5 C0.11003906 5.7425 -0.34242187 6.485 -0.80859375 7.25 C-1.20175781 7.8275 -1.59492187 8.405 -2 9 C-2.33 9 -2.66 9 -3 9 C-3 7.35 -3 5.7 -3 4 C-2.34 4 -1.68 4 -1 4 C-0.67 2.68 -0.34 1.36 0 0 Z " fill="#954FD2" transform="translate(81,125)"/>
<path d="M0 0 C0.66 0.33 1.32 0.66 2 1 C0.68 2.65 -0.64 4.3 -2 6 C-3.32 5.67 -4.64 5.34 -6 5 C-4.02 3.35 -2.04 1.7 0 0 Z " fill="#9657CE" transform="translate(94,291)"/>
<path d="M0 0 C0.66 0 1.32 0 2 0 C1.35494404 3.48330216 0.01782732 6.09432866 -2 9 C-2.66 9 -3.32 9 -4 9 C-2.80100302 5.9168649 -1.52299523 2.93720508 0 0 Z " fill="#9654D2" transform="translate(161,285)"/>
<path d="M0 0 C0.33 0.99 0.66 1.98 1 3 C-0.25 4.5625 -0.25 4.5625 -2 6 C-4.1875 5.6875 -4.1875 5.6875 -6 5 C-4.02 3.35 -2.04 1.7 0 0 Z " fill="#9650D4" transform="translate(67,251)"/>
<path d="M0 0 C0 3 0 3 -2.5 5.6875 C-3.325 6.450625 -4.15 7.21375 -5 8 C-5.66 7.67 -6.32 7.34 -7 7 C-4.78071806 4.09197539 -3.07030857 2.04687238 0 0 Z " fill="#26183D" transform="translate(214,205)"/>
</svg>
